<?xml version="1.0" standalone="no"?><!DOCTYPE svg PUBLIC "-//W3C//DTD SVG 1.1//EN" "http://www.w3.org/Graphics/SVG/1.1/DTD/svg11.dtd"><svg t="1514546325625" class="icon" style="" viewBox="0 0 1024 1024" version="1.1" xmlns="http://www.w3.org/2000/svg" p-id="3506" xmlns:xlink="http://www.w3.org/1999/xlink" width="200" height="200"><defs><style type="text/css"></style></defs><path d="M903.204843 665.305595 623.081934 665.305595l290.113447-290.112424c13.71435 41.327244 21.373797 85.420485 21.373797 131.380236C934.569178 562.789757 923.30974 616.331183 903.204843 665.305595zM703.687764 132.88552c88.994893 44.773739 159.695119 120.31932 198.386326 212.613352L703.687764 543.885198 703.687764 132.88552zM516.095271 88.099501c56.217373 0 109.757776 11.264555 158.732188 31.364335l0 280.122909L384.714012 109.473297C426.043303 95.758947 470.13552 88.099501 516.095271 88.099501zM142.407384 318.980915c44.771693-88.994893 120.31932-159.695119 212.613352-198.386326l198.390419 198.386326L142.407384 318.980915zM118.996185 637.954667c-13.71435-41.327244-21.373797-85.421508-21.373797-131.380236 0-56.217373 11.262508-109.757776 31.364335-158.732188L409.108608 347.842243 118.996185 637.954667zM328.537572 549.863353l-0.032746 0 0 330.398966c-88.994893-44.771693-159.691025-120.31932-198.388373-212.613352l198.399629-198.399629L328.537572 549.863353zM647.475508 903.673517c-41.327244 13.71435-85.420485 21.373797-131.380236 21.373797-56.215326 0-109.756753-11.258415-158.731164-31.364335L357.364107 613.561094 647.475508 903.673517zM478.771201 694.152597l95.04468-0.024559 0 0.037862 315.967278 0c-44.773739 88.994893-120.31932 159.691025-212.613352 198.388373L478.771201 694.152597z" p-id="3507" fill="#FFC107"></path></svg>